<svg xmlns="http://www.w3.org/2000/svg" viewBox="0 0 32 32"><defs/><path fill="#ec2028" d="M13.45 0h5.15A16.43 16.43 0 0132 13.44v5.16A16.45 16.45 0 0118.56 32H13.4A16.44 16.44 0 010 18.56v-5.17A16.43 16.43 0 0113.45 0M9.67 23.5c.13-5 .13-10 0-15-3.93 3.86-3.92 11.14 0 15m2.17-11.74c-3.26 4.22-.25 11.14 5.09 11.48 4.7.79 8.75-3.64 8.21-8.22l-5.46-.05c-.93.93-1.86 1.85-2.81 2.75 1.74.03 3.47.08 5.21.14-2.06 3.28-7.45 3.17-8.49-.85-1.08-4.51 4.91-6.96 7.89-3.81l2.02-2.25c-3.31-2.96-9.05-3.14-11.66.81z"/><g fill="#fffefe"><path d="M9.67 23.5c-3.92-3.86-3.93-11.14 0-15 .13 5 .13 10 0 15zM11.84 11.76c2.61-3.95 8.35-3.77 11.66-.81l-2.02 2.25c-2.98-3.15-8.97-.7-7.89 3.81 1.04 4.02 6.43 4.13 8.49.85-1.74-.06-3.47-.11-5.21-.14.95-.9 1.88-1.82 2.81-2.75l5.46.05c.54 4.58-3.51 9.01-8.21 8.22-5.34-.34-8.35-7.26-5.09-11.48z"/></g></svg>
